<svg width="26" height="26" viewBox="0 0 26 26" fill="none" xmlns="http://www.w3.org/2000/svg">
<path d="M22.1692 20.5644H3.83084C2.59209 20.5644 1.58789 19.5647 1.58789 18.3317C1.58789 17.7396 1.8242 17.1717 2.24484 16.7529L4.12392 14.8824V9.83555C4.12392 4.95581 8.09789 1 13 1C17.9022 1 21.8761 4.9558 21.8761 9.83555V14.8824L23.7552 16.7529C24.1758 17.1717 24.4121 17.7396 24.4121 18.3317C24.4121 19.5647 23.4079 20.5644 22.1692 20.5644Z" stroke="#454F5B" stroke-width="1.5" stroke-linecap="round" stroke-linejoin="round"/>
<path d="M17.4393 20.5625C17.4393 23.0137 15.4524 25.0007 13.0013 25.0007C10.5502 25.0007 8.56323 23.0137 8.56323 20.5625" stroke="#454F5B" stroke-width="1.5" stroke-linecap="round" stroke-linejoin="round"/>
</svg>
