<svg width="20" height="20" viewBox="0 0 20 20" fill="none" xmlns="http://www.w3.org/2000/svg">
<path d="M3.68532 10.9821L2.5 12.1672L6.05597 13.9447L7.83397 17.5L9.01925 16.3149L8.72292 13.6485L11.0936 11.2783L14.3532 16.3149L15.4504 15.218C15.872 14.7965 16.0379 14.1828 15.8862 13.6064L14.6496 8.90817L16.1728 7.61952C17.5264 6.47446 17.9092 4.46412 17.0202 2.98277C15.5386 2.09397 13.1827 2.4289 12.0482 4.01666L11.0936 5.35293L6.39442 4.11657C5.81785 3.96487 5.20407 4.13077 4.78249 4.55226L3.68532 5.64921L8.72292 8.90817L6.3523 11.2783L3.68532 10.9821Z" stroke="#2094F3" stroke-width="1.5" stroke-linecap="round" stroke-linejoin="round"/>
</svg>
