<svg width="95" height="25" viewBox="0 0 95 25" fill="none" xmlns="http://www.w3.org/2000/svg">
<path fill-rule="evenodd" clip-rule="evenodd" d="M2.90231 4.72166C4.40878 4.72166 5.49968 3.7326 5.49968 2.39151C5.49968 1.05042 4.40878 0.078125 2.90231 0.078125C1.43047 0.078125 0.322266 1.05042 0.322266 2.39151C0.322266 3.7326 1.43047 4.72166 2.90231 4.72166ZM2.90231 24.8548C4.3222 24.8548 5.18799 24.0334 5.18799 22.4241V9.18079C5.18799 7.57148 4.3222 6.7333 2.91963 6.7333C1.49974 6.7333 0.633949 7.57148 0.633949 9.18079V22.4241C0.633949 24.0166 1.49974 24.8548 2.90231 24.8548ZM26.1574 22.4409C26.1574 23.9999 25.3435 24.8548 23.889 24.8548C22.4172 24.8548 21.6033 23.9831 21.6033 22.4241V13.9752C21.6033 11.6451 20.4085 10.3375 18.296 10.3375C15.9238 10.3375 14.4346 12.0306 14.4346 14.7966V22.4241C14.4346 23.9831 13.6034 24.8548 12.1489 24.8548C10.6944 24.8548 9.86325 23.9831 9.86325 22.4241V9.09698C9.86325 7.63854 10.729 6.7333 12.1143 6.7333C13.4822 6.7333 14.2788 7.52119 14.3307 8.9461V10.0357H14.5558C15.2658 7.92352 17.3263 6.61595 20.0276 6.61595C23.941 6.61595 26.1574 8.86228 26.1574 12.7682V22.4409ZM32.9625 4.72166C34.4689 4.72166 35.5598 3.7326 35.5598 2.39151C35.5598 1.05042 34.4689 0.078125 32.9625 0.078125C31.4906 0.078125 30.3824 1.05042 30.3824 2.39151C30.3824 3.7326 31.4906 4.72166 32.9625 4.72166ZM35.2481 22.4241C35.2481 24.0334 34.3823 24.8548 32.9625 24.8548C31.5599 24.8548 30.6941 24.0166 30.6941 22.4241V9.18079C30.6941 7.57148 31.5599 6.7333 32.9798 6.7333C34.3823 6.7333 35.2481 7.57148 35.2481 9.18079V22.4241ZM64.0615 24.8548C65.5161 24.8548 66.3472 23.9999 66.3472 22.4241V12.2653C66.3472 8.74494 64.1308 6.61595 60.4252 6.61595C57.7759 6.61595 55.698 7.90676 54.9015 9.96869H54.6937C54.0877 7.88999 52.2176 6.61595 49.6375 6.61595C47.1441 6.61595 45.222 7.85646 44.616 9.85134H44.3909V9.01316C44.3216 7.58825 43.5078 6.7333 42.1744 6.7333C40.7892 6.7333 39.9234 7.63854 39.9234 9.11374V22.4241C39.9234 23.9999 40.7545 24.8548 42.2091 24.8548C43.6636 24.8548 44.4947 23.9999 44.4947 22.4241V13.8243C44.4947 11.6618 45.7934 10.2704 47.7328 10.2704C49.7068 10.2704 50.9362 11.5612 50.9362 13.6735V22.4241C50.9362 23.9999 51.7154 24.8548 53.1353 24.8548C54.5725 24.8548 55.3517 23.9999 55.3517 22.4241V13.8411C55.3517 11.6953 56.685 10.2704 58.6417 10.2704C60.6157 10.2704 61.7932 11.4774 61.7932 13.5896V22.4241C61.7932 23.9999 62.607 24.8548 64.0615 24.8548ZM80.8578 22.4241C79.9228 24.0166 78.1046 24.9219 75.8536 24.9219C72.2692 24.9219 69.845 22.7426 69.845 19.5072C69.845 16.2215 72.3558 14.1931 76.5289 14.1931H80.8925V12.7347C80.8925 10.941 79.7323 10.0022 77.6371 10.0022C76.2518 10.0022 75.2648 10.5051 74.2432 11.3936C73.7237 11.7959 73.2389 11.9803 72.4943 11.9803C71.49 11.9803 70.8666 11.3265 70.8666 10.4213C70.8666 9.38196 71.6112 8.32585 73.2216 7.53795C74.3817 6.95123 75.9228 6.61595 77.9315 6.61595C82.7452 6.61595 85.4465 8.82876 85.4465 12.7682V22.4911C85.4465 23.9999 84.65 24.8548 83.2301 24.8548C82.018 24.8548 81.2215 24.201 81.0829 23.0443V22.4241H80.8578ZM77.3774 21.7368C75.5938 21.7368 74.3817 20.7142 74.3817 19.239C74.3817 17.7806 75.49 16.9088 77.36 16.9088H80.8925V18.7528C80.8925 20.4292 79.3514 21.7368 77.3774 21.7368ZM94.4334 22.4241C94.4334 24.0334 93.5503 24.8548 92.1477 24.8548C90.7278 24.8548 89.862 24.0334 89.862 22.4241V2.91118C89.862 1.30187 90.7278 0.463689 92.1477 0.463689C93.5503 0.463689 94.4334 1.30187 94.4334 2.91118V22.4241Z" fill="#454F5B"/>
</svg>
